<svg xmlns="http://www.w3.org/2000/svg" viewBox="0 0 400 280" role="img" aria-label="Tourisme Occitanie — Cité de Carcassonne line-art or">
  <defs>
    <linearGradient id="g-or-c" x1="0%" y1="0%" x2="100%" y2="100%">
      <stop offset="0%" stop-color="#E2C97E"/>
      <stop offset="100%" stop-color="#C9A84C"/>
    </linearGradient>
    <filter id="glow-c" x="-25%" y="-25%" width="150%" height="150%">
      <feGaussianBlur stdDeviation="2.2" result="blur"/>
      <feMerge><feMergeNode in="blur"/><feMergeNode in="SourceGraphic"/></feMerge>
    </filter>
  </defs>

  <!-- Fond -->
  <rect width="400" height="280" fill="#080810"/>

  <!-- Colline / terrain -->
  <path d="M0 220 Q100 200 200 196 Q300 192 400 210 L400 280 L0 280Z"
        fill="#0D0D1A" stroke="#C9A84C" stroke-width="0.4" opacity="0.6"/>

  <!-- MURAILLE PRINCIPALE -->
  <rect x="48" y="148" width="304" height="52" fill="none" stroke="url(#g-or-c)" stroke-width="1.5" filter="url(#glow-c)"/>

  <!-- Créneaux muraille principale -->
  <rect x="52"  y="138" width="10" height="12" fill="none" stroke="url(#g-or-c)" stroke-width="1"/>
  <rect x="68"  y="138" width="10" height="12" fill="none" stroke="url(#g-or-c)" stroke-width="1"/>
  <rect x="84"  y="138" width="10" height="12" fill="none" stroke="url(#g-or-c)" stroke-width="1"/>
  <rect x="100" y="138" width="10" height="12" fill="none" stroke="url(#g-or-c)" stroke-width="1"/>
  <rect x="116" y="138" width="10" height="12" fill="none" stroke="url(#g-or-c)" stroke-width="1"/>
  <rect x="132" y="138" width="10" height="12" fill="none" stroke="url(#g-or-c)" stroke-width="1"/>
  <rect x="148" y="138" width="10" height="12" fill="none" stroke="url(#g-or-c)" stroke-width="1"/>
  <rect x="164" y="138" width="10" height="12" fill="none" stroke="url(#g-or-c)" stroke-width="1"/>
  <rect x="180" y="138" width="10" height="12" fill="none" stroke="url(#g-or-c)" stroke-width="1"/>
  <rect x="196" y="138" width="10" height="12" fill="none" stroke="url(#g-or-c)" stroke-width="1"/>
  <rect x="212" y="138" width="10" height="12" fill="none" stroke="url(#g-or-c)" stroke-width="1"/>
  <rect x="228" y="138" width="10" height="12" fill="none" stroke="url(#g-or-c)" stroke-width="1"/>
  <rect x="244" y="138" width="10" height="12" fill="none" stroke="url(#g-or-c)" stroke-width="1"/>
  <rect x="260" y="138" width="10" height="12" fill="none" stroke="url(#g-or-c)" stroke-width="1"/>
  <rect x="276" y="138" width="10" height="12" fill="none" stroke="url(#g-or-c)" stroke-width="1"/>
  <rect x="292" y="138" width="10" height="12" fill="none" stroke="url(#g-or-c)" stroke-width="1"/>
  <rect x="308" y="138" width="10" height="12" fill="none" stroke="url(#g-or-c)" stroke-width="1"/>
  <rect x="324" y="138" width="10" height="12" fill="none" stroke="url(#g-or-c)" stroke-width="1"/>
  <rect x="338" y="138" width="10" height="12" fill="none" stroke="url(#g-or-c)" stroke-width="1"/>

  <!-- TOUR GAUCHE -->
  <rect x="44" y="104" width="44" height="96" fill="none" stroke="url(#g-or-c)" stroke-width="1.4" filter="url(#glow-c)"/>
  <!-- Toiture tour gauche -->
  <path d="M44 104 L66 74 L88 104Z" fill="none" stroke="url(#g-or-c)" stroke-width="1.4" filter="url(#glow-c)"/>
  <!-- Créneaux tour gauche -->
  <rect x="48"  y="95" width="8" height="10" fill="none" stroke="url(#g-or-c)" stroke-width="0.9"/>
  <rect x="60"  y="95" width="8" height="10" fill="none" stroke="url(#g-or-c)" stroke-width="0.9"/>
  <rect x="72"  y="95" width="8" height="10" fill="none" stroke="url(#g-or-c)" stroke-width="0.9"/>
  <!-- Porte arcades tour gauche -->
  <path d="M57 200 L57 175 Q66 162 75 175 L75 200Z" fill="none" stroke="#C9A84C" stroke-width="0.9"/>
  <!-- Fenêtres tour gauche -->
  <path d="M54 130 L54 116 Q66 108 78 116 L78 130Z" fill="none" stroke="#C9A84C" stroke-width="0.8" opacity="0.7"/>
  <rect x="55" y="143" width="22" height="13" rx="1" fill="#C9A84C" fill-opacity="0.06" stroke="#C9A84C" stroke-width="0.6" opacity="0.5"/>

  <!-- TOUR CENTRALE IMPOSANTE -->
  <rect x="168" y="72" width="64" height="128" fill="none" stroke="url(#g-or-c)" stroke-width="1.8" filter="url(#glow-c)"/>
  <!-- Toiture conique centrale -->
  <path d="M168 72 L200 32 L232 72Z" fill="none" stroke="url(#g-or-c)" stroke-width="1.8" filter="url(#glow-c)"/>
  <!-- Créneaux tour centrale -->
  <rect x="172" y="62" width="9" height="12" fill="none" stroke="url(#g-or-c)" stroke-width="1.1"/>
  <rect x="185" y="62" width="9" height="12" fill="none" stroke="url(#g-or-c)" stroke-width="1.1"/>
  <rect x="198" y="62" width="9" height="12" fill="none" stroke="url(#g-or-c)" stroke-width="1.1"/>
  <rect x="211" y="62" width="9" height="12" fill="none" stroke="url(#g-or-c)" stroke-width="1.1"/>
  <rect x="222" y="62" width="9" height="12" fill="none" stroke="url(#g-or-c)" stroke-width="1.1"/>
  <!-- Grande porte plein cintre -->
  <path d="M184 200 L184 162 Q200 144 216 162 L216 200Z" fill="none" stroke="#C9A84C" stroke-width="1.1"/>
  <!-- Fenêtre centrale ogivale principale -->
  <path d="M186 118 L186 94 Q200 82 214 94 L214 118Z" fill="none" stroke="#C9A84C" stroke-width="0.9" opacity="0.8"/>
  <!-- Rose window -->
  <circle cx="200" cy="106" r="6" fill="none" stroke="#C9A84C" stroke-width="0.6" opacity="0.4"/>
  <!-- Fenêtres hautes -->
  <path d="M175 145 L175 133 Q181 126 187 133 L187 145Z" fill="none" stroke="#C9A84C" stroke-width="0.7" opacity="0.55"/>
  <path d="M213 145 L213 133 Q219 126 225 133 L225 145Z" fill="none" stroke="#C9A84C" stroke-width="0.7" opacity="0.55"/>

  <!-- TOUR DROITE -->
  <rect x="312" y="108" width="44" height="92" fill="none" stroke="url(#g-or-c)" stroke-width="1.4" filter="url(#glow-c)"/>
  <!-- Toiture tour droite -->
  <path d="M312 108 L334 78 L356 108Z" fill="none" stroke="url(#g-or-c)" stroke-width="1.4" filter="url(#glow-c)"/>
  <!-- Créneaux tour droite -->
  <rect x="316" y="99" width="8" height="10" fill="none" stroke="url(#g-or-c)" stroke-width="0.9"/>
  <rect x="328" y="99" width="8" height="10" fill="none" stroke="url(#g-or-c)" stroke-width="0.9"/>
  <rect x="340" y="99" width="8" height="10" fill="none" stroke="url(#g-or-c)" stroke-width="0.9"/>
  <!-- Porte tour droite -->
  <path d="M323 200 L323 177 Q334 164 345 177 L345 200Z" fill="none" stroke="#C9A84C" stroke-width="0.9"/>
  <!-- Fenêtres tour droite -->
  <path d="M322 134 L322 120 Q334 112 346 120 L346 134Z" fill="none" stroke="#C9A84C" stroke-width="0.8" opacity="0.7"/>
  <rect x="322" y="148" width="22" height="13" rx="1" fill="#C9A84C" fill-opacity="0.06" stroke="#C9A84C" stroke-width="0.6" opacity="0.5"/>

  <!-- TOUR SECONDAIRE GAUCHE INTERMÉDIAIRE -->
  <rect x="106" y="118" width="36" height="82" fill="none" stroke="url(#g-or-c)" stroke-width="1.2"/>
  <path d="M106 118 L124 96 L142 118Z" fill="none" stroke="url(#g-or-c)" stroke-width="1.2"/>
  <rect x="110" y="110" width="7" height="9" fill="none" stroke="#C9A84C" stroke-width="0.7"/>
  <rect x="120" y="110" width="7" height="9" fill="none" stroke="#C9A84C" stroke-width="0.7"/>
  <rect x="130" y="110" width="7" height="9" fill="none" stroke="#C9A84C" stroke-width="0.7"/>
  <path d="M115 200 L115 180 Q124 170 133 180 L133 200Z" fill="none" stroke="#C9A84C" stroke-width="0.8"/>
  <path d="M113 143 L113 131 Q124 124 135 131 L135 143Z" fill="none" stroke="#C9A84C" stroke-width="0.7" opacity="0.6"/>

  <!-- TOUR SECONDAIRE DROITE INTERMÉDIAIRE -->
  <rect x="258" y="122" width="36" height="78" fill="none" stroke="url(#g-or-c)" stroke-width="1.2"/>
  <path d="M258 122 L276 100 L294 122Z" fill="none" stroke="url(#g-or-c)" stroke-width="1.2"/>
  <rect x="262" y="114" width="7" height="9" fill="none" stroke="#C9A84C" stroke-width="0.7"/>
  <rect x="272" y="114" width="7" height="9" fill="none" stroke="#C9A84C" stroke-width="0.7"/>
  <rect x="282" y="114" width="7" height="9" fill="none" stroke="#C9A84C" stroke-width="0.7"/>
  <path d="M265 200 L265 181 Q276 171 287 181 L287 200Z" fill="none" stroke="#C9A84C" stroke-width="0.8"/>
  <path d="M263 147 L263 135 Q276 128 289 135 L289 147Z" fill="none" stroke="#C9A84C" stroke-width="0.7" opacity="0.6"/>

  <!-- Lueur or sous les murs -->
  <ellipse cx="200" cy="202" rx="150" ry="7" fill="#C9A84C" fill-opacity="0.05"/>

  <!-- Étoiles / ciel -->
  <circle cx="40"  cy="40"  r="1"   fill="#E2C97E" opacity="0.3"/>
  <circle cx="80"  cy="25"  r="0.8" fill="#E2C97E" opacity="0.25"/>
  <circle cx="140" cy="35"  r="1.2" fill="#E2C97E" opacity="0.35"/>
  <circle cx="260" cy="28"  r="0.8" fill="#E2C97E" opacity="0.2"/>
  <circle cx="320" cy="44"  r="1"   fill="#E2C97E" opacity="0.3"/>
  <circle cx="370" cy="22"  r="0.8" fill="#E2C97E" opacity="0.25"/>
  <circle cx="360" cy="55"  r="1.2" fill="#E2C97E" opacity="0.2"/>

  <!-- Coins décoratifs -->
  <line x1="20" y1="20" x2="48" y2="20" stroke="#C9A84C" stroke-width="0.6" opacity="0.4"/>
  <line x1="20" y1="20" x2="20" y2="48" stroke="#C9A84C" stroke-width="0.6" opacity="0.4"/>
  <line x1="380" y1="20" x2="352" y2="20" stroke="#C9A84C" stroke-width="0.6" opacity="0.4"/>
  <line x1="380" y1="20" x2="380" y2="48" stroke="#C9A84C" stroke-width="0.6" opacity="0.4"/>
  <line x1="20" y1="260" x2="48" y2="260" stroke="#C9A84C" stroke-width="0.6" opacity="0.4"/>
  <line x1="20" y1="260" x2="20" y2="232" stroke="#C9A84C" stroke-width="0.6" opacity="0.4"/>
  <line x1="380" y1="260" x2="352" y2="260" stroke="#C9A84C" stroke-width="0.6" opacity="0.4"/>
  <line x1="380" y1="260" x2="380" y2="232" stroke="#C9A84C" stroke-width="0.6" opacity="0.4"/>
</svg>
